<?xml version="1.0" encoding="UTF-8"?>
<svg id="Layer_2" data-name="Layer 2" xmlns="http://www.w3.org/2000/svg" viewBox="0 0 511.79 124.13">
  <defs>
    <style>
      .cls-1 {
        fill: none;
      }

      .cls-2, .cls-3 {
        fill: #26408d;
      }

      .cls-4, .cls-3 {
        fill-rule: evenodd;
      }

      .cls-4, .cls-5 {
        fill: #fff;
      }
    </style>
  </defs>
  <g id="Layer_1-2" data-name="Layer 1">
    <g id="Two_Line" data-name="Two Line">
      <g>
        <path class="cls-5" d="M0,62.04c-.13,34.22,27.93,62.35,62.56,62.08,33.48-.26,61.22-27.3,61.55-61.45C124.45,27.93,96.21-.52,61.05,0,27.09.52-.08,28.28,0,62.04Z"/>
        <path class="cls-3" d="M0,62.04C-.08,28.28,27.09.52,61.05,0c35.16-.53,63.4,27.92,63.06,62.67-.33,34.15-28.07,61.19-61.55,61.45C27.93,124.4-.13,96.26,0,62.04ZM81.53,56.41c1.02,1.39,2.02,2.73,3,4.09,5.93,8.21,11.6,16.59,16.54,25.44,2.79,4.99,5.34,10.1,7.11,15.56.03.09.09.17.17.31.48-.58.9-1.13,1.37-1.64.29-.32.31-.6.16-1-1.98-5.5-4.64-10.67-7.52-15.73-4.7-8.24-10-16.1-15.54-23.79-.61-.84-1.22-1.68-1.89-2.61,1.38.64,2.79.86,4.06.6.45-.09.71.01.99.36,3.73,4.64,7.54,9.22,11.19,13.92,4.5,5.8,8.68,11.84,12.33,18.22.46.8.9,1.6,1.4,2.5.6-1.13,1.14-2.17,1.71-3.19.19-.34.17-.61-.03-.93-1.1-1.79-2.14-3.62-3.27-5.39-4.91-7.7-10.45-14.95-16.23-22.02-1.31-1.6-2.63-3.18-3.96-4.79.64-.36,1.27-.7,1.86-1.07.47-.3.94-.37,1.48-.28,1.87.29,3.45,1.22,4.92,2.32,3.1,2.31,6.6,2.91,10.28,2.27,5.29-.92,8.61-4.13,10.05-9.28.07-.26.08-.57.02-.83-1.32-6.28-3.59-12.21-6.81-17.76-.17-.3-.47-.61-.79-.74-2.43-.96-4.88-1.86-7.31-2.82-1.17-.46-2.34-.95-3.43-1.56-.87-.48-.95-1.05-.54-1.95.17-.37.38-.73.62-1.06.78-1.08,1.57-2.16,2.38-3.22.23-.3.21-.48-.06-.76-5.81-5.95-12.55-10.55-20.22-13.78-1.34-.57-1.36-.58-2.41.44-1,.96-1.95,1.98-2.96,2.93-.79.74-1.31.64-1.78-.32-.77-1.57-2.01-2.59-3.63-3.2-2.36-.88-4.83-1-7.3-1.16-1.62-.1-3.24-.19-4.84-.41-2.83-.39-5.54-1.27-8.24-2.15-.4-.13-.84-.25-1.24-.19-1.3.19-2.59.43-3.88.7-7.49,1.57-14.41,4.51-20.81,8.69-.33.22-.51.47-.55.85-.04.37-.07.74-.13,1.11-.21,1.37-.35,2.76-.66,4.1-.33,1.44-1.27,2.41-2.7,2.92-3.87,1.38-7.53,3.21-10.95,5.49-.36.24-.72.54-.97.89C6.5,34.82,2.86,44.11,1.51,54.31c-.06.47-.21,1-.06,1.42.73,2.09,1.9,3.87,3.9,4.97,1.86,1.02,3.83,1.14,5.85.64.41-.1.66-.02.96.28,1.05,1.04,2.11,2.07,3.23,3.04.94.81,1.97,1.52,2.97,2.28-.91,1.19-1.83,2.39-2.74,3.6-3.45,4.57-6.74,9.24-9.77,14.1-.22.35-.29.63-.1,1.02.46.94.87,1.91,1.3,2.87.06.13.15.25.26.43,4.28-7.23,9.17-13.93,14.23-20.42,1.54.63,3.02,1.24,4.51,1.86-.15.23-.31.47-.46.71-3.35,5.11-6.6,10.28-9.43,15.7-1.54,2.96-2.91,6.02-4.35,9.04-.09.19-.19.5-.11.64.45.72.96,1.4,1.5,2.15.12-.27.19-.43.26-.59,1.01-2.26,1.94-4.55,3.03-6.77,3.44-7,7.56-13.59,11.85-20.09.2-.3.41-.38.75-.34,3.05.29,5.78-.51,8.15-2.47.3-.25.58-.51.87-.76-.43.78-.9,1.52-1.37,2.25-4.83,7.61-9.46,15.34-13.28,23.52-1.67,3.58-3.16,7.24-4.08,11.1-.24,1.02-.08,1.4.76,1.83.48-1.7.89-3.43,1.45-5.11,1.52-4.57,3.61-8.9,5.85-13.15,4.28-8.12,9.15-15.89,14.21-23.55.33-.49.71-.86,1.24-1.12.54-.27,1.05-.6,1.55-.95,1.57-1.1,2.9-2.42,3.65-4.23.16-.39.28-.79.43-1.2.67.5.68.5.34,1.2-.69,1.42-1.4,2.84-2.09,4.27-3.43,7.14-6.72,14.34-9.7,21.67-2.72,6.69-5.27,13.44-6.96,20.48-.65,2.7-1.15,5.43-1.13,8.23,0,.48.2.71.71.83,0-.98-.07-1.93.01-2.86.28-3.15,1-6.21,1.87-9.24,1.92-6.75,4.38-13.32,7.18-19.74,3.02-6.93,6.23-13.78,9.37-20.66.49-1.08,1.05-2.13,1.55-3.14.91.4,1.76.78,2.66,1.18.02.41.08.89.08,1.37-.01,3.76.05,7.52-.07,11.28-.11,3.63-.36,7.26-.64,10.88-.35,4.51-1.04,8.98-2.05,13.39-1,4.38-2.33,8.66-4.52,12.61-1.53,2.76-3.4,5.24-6.1,6.97-.93.59-1.95,1.04-2.93,1.55.04.02.13.07.23.12,3.19,1.51,6.5,2.7,9.91,3.62,4.26,1.15,8.6,1.78,13,2.03.68.04,1.29-.06,1.87-.45.8-.54,1.62-1.03,2.44-1.54,1.9-1.18,3.64-2.63,5.76-3.45.06-.02.15-.06.16-.11.08-.41.43-.36.68-.34,1.52.16,3.07.23,4.55.57,2.32.52,4.6,1.25,6.9,1.86.29.08.65.07.92-.03,1.56-.59,3.11-1.23,4.66-1.85.14-.05.26-.15.43-.25-.16-.1-.24-.16-.33-.21-2.98-1.72-5.42-4.04-7.47-6.78-3.14-4.2-5.2-8.94-6.75-13.91-2.39-7.67-3.54-15.57-4.06-23.56-.26-4-.25-8.01-.38-12.02-.02-.7.08-1.26.67-1.77.48-.41.75-1.07,1.09-1.63.12-.19.2-.41.33-.69.75,1.52,1.46,2.97,2.16,4.42,4.42,9.13,8.64,18.35,12.27,27.83,2.4,6.26,4.64,12.58,5.78,19.22.34,1.97.54,3.95.28,5.95-.06.48-.15.96-.24,1.47.5-.15.73-.41.82-.91.26-1.53.22-3.06.05-4.58-.31-2.89-.96-5.71-1.75-8.51-2.26-8.03-5.36-15.75-8.65-23.4-3.2-7.44-6.66-14.76-10.27-22.01-.09-.18-.17-.41-.14-.6.09-.55.23-1.09.35-1.64.04.02.06.02.07.03.08.13.17.27.25.41.83,1.4,1.79,2.66,3.38,3.29.16.06.3.24.41.39,6.07,8.33,11.84,16.85,16.9,25.83,2.63,4.67,5.06,9.45,6.86,14.51,1,2.82,1.84,5.69,1.9,8.72.01.49,0,.97,0,1.47.09,0,.13,0,.15-.01.23-.19.45-.4.7-.58.3-.21.36-.45.35-.82-.05-2.77-.73-5.42-1.59-8.03-1.73-5.26-4.2-10.19-6.87-15.03-4.52-8.16-9.68-15.91-15.08-23.51-.63-.88-1.26-1.76-1.94-2.71,1.74-.13,3.2-.8,4.66-1.68Z"/>
        <path class="cls-4" d="M81.53,56.41c-1.46.87-2.93,1.54-4.66,1.68.68.95,1.31,1.83,1.94,2.71,5.4,7.6,10.56,15.35,15.08,23.51,2.68,4.83,5.14,9.76,6.87,15.03.86,2.61,1.54,5.26,1.59,8.03,0,.36-.06.61-.35.82-.25.17-.47.39-.7.58-.02.02-.07,0-.15.01,0-.49,0-.98,0-1.47-.07-3.03-.9-5.89-1.9-8.72-1.79-5.07-4.23-9.84-6.86-14.51-5.06-8.99-10.84-17.51-16.9-25.83-.11-.15-.25-.33-.41-.39-1.59-.63-2.55-1.89-3.38-3.29-.08-.14-.16-.27-.25-.41,0-.01-.03-.01-.07-.03-.12.55-.27,1.09-.35,1.64-.03.19.05.42.14.6,3.6,7.25,7.07,14.57,10.27,22.01,3.29,7.65,6.39,15.37,8.65,23.4.78,2.79,1.43,5.62,1.75,8.51.17,1.52.21,3.05-.05,4.58-.08.49-.32.76-.82.91.08-.51.17-.99.24-1.47.26-2,.06-3.98-.28-5.95-1.14-6.64-3.39-12.96-5.78-19.22-3.63-9.48-7.84-18.7-12.27-27.83-.7-1.45-1.42-2.9-2.16-4.42-.13.28-.21.5-.33.69-.35.56-.62,1.21-1.09,1.63-.59.52-.69,1.07-.67,1.77.13,4.01.11,8.02.38,12.02.52,7.99,1.67,15.89,4.06,23.56,1.55,4.97,3.61,9.71,6.75,13.91,2.05,2.74,4.48,5.07,7.47,6.78.09.05.18.11.33.21-.18.1-.3.19-.43.25-1.55.63-3.1,1.26-4.66,1.85-.27.1-.63.11-.92.03-2.3-.61-4.58-1.34-6.9-1.86-1.48-.34-3.03-.4-4.55-.57-.26-.03-.6-.07-.68.34,0,.05-.1.09-.16.11-2.12.82-3.86,2.27-5.76,3.45-.82.51-1.64,1-2.44,1.54-.58.39-1.18.49-1.87.45-4.4-.25-8.74-.88-13-2.03-3.41-.92-6.72-2.11-9.91-3.62-.09-.04-.18-.1-.23-.12.97-.51,2-.95,2.93-1.55,2.7-1.73,4.57-4.21,6.1-6.97,2.19-3.96,3.52-8.23,4.52-12.61,1.01-4.41,1.7-8.88,2.05-13.39.28-3.62.53-7.25.64-10.88.12-3.76.06-7.52.07-11.28,0-.48-.05-.96-.08-1.37-.9-.4-1.75-.78-2.66-1.18-.5,1.01-1.05,2.06-1.55,3.14-3.14,6.88-6.34,13.73-9.37,20.66-2.8,6.42-5.26,12.99-7.18,19.74-.86,3.03-1.58,6.1-1.87,9.24-.08.93-.01,1.88-.01,2.86-.5-.11-.7-.34-.71-.83-.01-2.8.48-5.53,1.13-8.23,1.69-7.04,4.24-13.79,6.96-20.48,2.98-7.34,6.27-14.54,9.7-21.67.69-1.43,1.39-2.84,2.09-4.27.34-.69.33-.7-.34-1.2-.14.4-.27.81-.43,1.2-.75,1.81-2.08,3.13-3.65,4.23-.49.35-1.01.68-1.55.95-.53.26-.91.63-1.24,1.12-5.05,7.66-9.92,15.43-14.21,23.55-2.24,4.25-4.34,8.58-5.85,13.15-.56,1.68-.97,3.41-1.45,5.11-.83-.43-1-.81-.76-1.83.92-3.86,2.41-7.51,4.08-11.1,3.82-8.18,8.45-15.91,13.28-23.52.47-.74.94-1.47,1.37-2.25-.29.25-.57.52-.87.76-2.37,1.96-5.1,2.76-8.15,2.47-.34-.03-.55.04-.75.34-4.29,6.5-8.41,13.1-11.85,20.09-1.09,2.22-2.03,4.51-3.03,6.77-.07.16-.14.32-.26.59-.54-.76-1.05-1.44-1.5-2.15-.09-.14.01-.45.11-.64,1.44-3.02,2.8-6.08,4.35-9.04,2.83-5.42,6.07-10.6,9.43-15.7.16-.24.31-.48.46-.71-1.49-.61-2.97-1.22-4.51-1.86-5.06,6.49-9.95,13.18-14.23,20.42-.11-.18-.2-.3-.26-.43-.43-.96-.84-1.92-1.3-2.87-.19-.39-.12-.67.1-1.02,3.03-4.86,6.32-9.53,9.77-14.1.91-1.21,1.84-2.41,2.74-3.6-1-.76-2.03-1.47-2.97-2.28-1.12-.96-2.18-2-3.23-3.04-.3-.29-.55-.38-.96-.28-2.02.5-3.99.38-5.85-.64-2-1.1-3.17-2.88-3.9-4.97-.15-.42,0-.95.06-1.42,1.35-10.2,4.99-19.5,11-27.85.25-.35.61-.65.97-.89,3.42-2.28,7.08-4.11,10.95-5.49,1.43-.51,2.37-1.48,2.7-2.92.31-1.35.45-2.73.66-4.1.06-.37.09-.74.13-1.11.04-.38.22-.63.55-.85,6.4-4.19,13.32-7.13,20.81-8.69,1.29-.27,2.58-.52,3.88-.7.4-.06.85.07,1.24.19,2.7.89,5.42,1.76,8.24,2.15,1.6.22,3.22.31,4.84.41,2.47.16,4.94.28,7.3,1.16,1.62.6,2.86,1.62,3.63,3.2.47.96.99,1.06,1.78.32,1.01-.95,1.96-1.97,2.96-2.93,1.06-1.01,1.07-1,2.41-.44,7.67,3.23,14.4,7.83,20.22,13.78.27.28.29.45.06.76-.81,1.06-1.6,2.14-2.38,3.22-.24.33-.44.69-.62,1.06-.42.9-.33,1.47.54,1.95,1.09.61,2.26,1.1,3.43,1.56,2.43.96,4.88,1.86,7.31,2.82.31.12.61.43.79.74,3.22,5.55,5.49,11.48,6.81,17.76.06.27.05.57-.02.83-1.45,5.15-4.76,8.36-10.05,9.28-3.69.64-7.19.04-10.28-2.27-1.48-1.1-3.05-2.03-4.92-2.32-.53-.08-1.01-.01-1.48.28-.6.38-1.23.71-1.86,1.07,1.33,1.61,2.66,3.19,3.96,4.79,5.77,7.07,11.31,14.32,16.23,22.02,1.13,1.77,2.17,3.6,3.27,5.39.2.32.22.59.03.93-.57,1.02-1.11,2.06-1.71,3.19-.5-.9-.94-1.7-1.4-2.5-3.65-6.39-7.83-12.42-12.33-18.22-3.65-4.7-7.46-9.28-11.19-13.92-.28-.35-.54-.46-.99-.36-1.27.26-2.68.04-4.06-.6.67.93,1.28,1.77,1.89,2.61,5.55,7.69,10.84,15.55,15.54,23.79,2.89,5.06,5.54,10.24,7.52,15.73.14.4.12.68-.16,1-.46.51-.89,1.06-1.37,1.64-.08-.14-.14-.22-.17-.31-1.77-5.46-4.32-10.56-7.11-15.56-4.94-8.85-10.61-17.23-16.54-25.44-.98-1.35-1.98-2.7-3-4.09Z"/>
      </g>
      <g>
        <g>
          <path class="cls-3" d="M445.66,76.58h-13.42c-1.58-4.13-3.22-8.28-4.74-12.48-.48-1.31-1.11-1.85-2.57-1.84-8.08.07-16.17.07-24.25,0-1.44-.01-2.14.48-2.63,1.79-1.41,3.78-2.88,7.53-4.44,11.25-.25.59-1.07,1.3-1.65,1.32-3.96.12-7.92.06-12.22.06,1.42-3.73,2.75-7.27,4.1-10.79,7.15-18.6,14.33-37.19,21.43-55.81.57-1.5,1.3-2.04,2.91-1.98,3.66.13,7.33.04,11.15.04,8.76,22.78,17.5,45.53,26.31,68.45ZM422.04,49.8c-3.08-7.92-6.02-15.47-8.96-23.02-.2.03-.4.06-.59.09-2.95,7.57-5.91,15.15-8.94,22.93h18.49Z"/>
          <path class="cls-3" d="M221.03,8.19h13.29c8.73,22.71,17.45,45.41,26.26,68.32h-13.41c-1.57-4.1-3.22-8.26-4.74-12.47-.49-1.35-1.19-1.79-2.61-1.78-8.01.07-16.02.09-24.03-.01-1.69-.02-2.35.64-2.88,2.08-1.31,3.57-2.82,7.07-4.11,10.65-.49,1.36-1.21,1.77-2.62,1.73-3.73-.11-7.46-.04-11.51-.04,8.85-23,17.61-45.75,26.36-68.48ZM228.07,26.85c-.21,0-.43.02-.64.03-2.95,7.57-5.9,15.14-8.9,22.81h18.41c-3.02-7.79-5.95-15.32-8.87-22.84Z"/>
          <path class="cls-3" d="M467.91,32.52v43.98h-12.7V8.13c3.78,0,7.58-.08,11.36.08.64.03,1.39.97,1.84,1.65,8.72,13.32,17.41,26.67,26.11,40.01.6.93,1.24,1.83,2.26,3.34V8.25h12.77v68.4c-3.86,0-7.79.08-11.72-.09-.61-.03-1.27-1.14-1.73-1.85-7.54-11.51-15.05-23.04-22.57-34.55-1.7-2.6-3.41-5.18-5.12-7.77-.16.05-.33.09-.5.14Z"/>
          <path class="cls-3" d="M270.1,8.14c3.88,0,7.61-.08,11.33.07.66.03,1.46.9,1.9,1.57,7.51,11.44,14.97,22.91,22.44,34.37,1.83,2.81,3.67,5.63,5.91,9.05V8.28h12.89v68.38c-3.89,0-7.69.07-11.48-.07-.59-.02-1.3-.84-1.71-1.45-8.9-13.56-17.77-27.15-26.64-40.73-.47-.71-.96-1.42-1.94-1.99v44.14h-12.69V8.14Z"/>
          <path class="cls-1" d="M167.37,35.01c.88-.05,1.77-.24,2.63-.48,3.2-.88,5.26-3.65,5.25-6.97,0-3.25-1.98-5.87-5.33-6.55-2.23-.45-4.54-.45-6.99-.67v14.69c1.63,0,3.04.06,4.44-.02Z"/>
          <path class="cls-1" d="M174.64,48.12c-3.56-1.27-7.53-1.4-11.64-2.1v18.16c2.52,0,4.87.26,7.13-.07,2.39-.36,5.03-.78,6.97-2.06,5.01-3.31,3.58-11.78-2.47-13.93Z"/>
          <path class="cls-2" d="M183.21,40.3c-.75-.44-1.48-.9-2.07-1.26,1.66-2.04,3.52-3.77,4.69-5.88,5.14-9.28-.12-20.69-10.94-23.64-8.12-2.22-16.47-1.17-24.87-1.39v68.11c8.63,0,17.02.35,25.36-.1,8.25-.44,15.09-6.77,16.79-14.56,2.01-9.17-1.17-16.71-8.95-21.28ZM162.94,20.34c2.45.22,4.77.21,6.99.67,3.34.68,5.32,3.3,5.33,6.55,0,3.32-2.05,6.09-5.25,6.97-.86.24-1.75.43-2.63.48-1.4.08-2.81.02-4.44.02v-14.69ZM177.11,62.05c-1.94,1.28-4.58,1.7-6.97,2.06-2.26.34-4.61.07-7.13.07v-18.16c4.11.7,8.08.84,11.64,2.1,6.05,2.15,7.48,10.63,2.47,13.93Z"/>
          <path class="cls-3" d="M334.19,8.13c4.43,0,8.47-.07,12.51.07.72.02,1.72.77,2.08,1.45,3.65,6.86,7.19,13.77,10.77,20.67.36.7.78,1.37,1.36,2.38,2.59-4.99,4.99-9.62,7.39-14.26,1.51-2.92,2.93-5.88,4.55-8.74.39-.69,1.36-1.46,2.09-1.49,3.96-.15,7.92-.07,12.3-.07-1.92,3.78-3.71,7.34-5.53,10.88-4.59,8.89-9.21,17.77-13.75,26.68-.45.88-.58,2-.58,3.01-.04,9.2-.03,18.4-.03,27.78h-13.02c-.05-.7-.14-1.48-.14-2.26-.01-8.23.06-16.46-.07-24.69-.03-1.71-.46-3.57-1.24-5.09-5.86-11.52-11.85-22.96-17.79-34.44-.27-.51-.5-1.04-.89-1.87Z"/>
        </g>
        <g>
          <path class="cls-3" d="M381.29,83.78c3.56.29,7,.3,10.32.92,3.81.71,6.11,3.6,6.36,7.12.34,4.64-1.25,7.53-5.09,9.27-.4.18-.8.38-1.52.73,3.06,4.27,6.07,8.47,9.15,12.75-3.42.81-5.76.18-7.44-2.95-1.51-2.81-3.6-5.31-5.47-7.93-.4-.56-.9-1.05-1.35-1.57-.22.06-.44.13-.67.19v12.39h-4.3v-30.93ZM385.66,88.48v9.93c2.98-.1,5.86.18,7.57-2.65,1.03-1.71,1.08-3.66-.15-5.28-1.88-2.49-4.63-2.24-7.42-1.99Z"/>
          <path class="cls-3" d="M377.57,114.83c-1.27,0-2.26.18-3.15-.05-.79-.2-1.76-.69-2.13-1.35-1.08-1.94-1.39-4.91-2.96-5.83-1.8-1.05-4.67-.09-7.02-.44-4.54-.67-7.57.6-8.6,5.43-.69,3.25-3.27,2.09-5.64,2.19,5-10.77,9.89-21.29,14.99-32.26,4.91,10.94,9.65,21.49,14.51,32.32ZM362.99,91.96c-1.8,3.99-3.31,7.31-4.87,10.78h9.57c-1.55-3.55-2.98-6.85-4.7-10.78Z"/>
          <path class="cls-2" d="M408.88,93.04c7.65,7.93,14.81,15.36,22.2,23.03v-31.92h-4.18v21.46c-7.62-7.85-14.79-15.23-22.2-22.85v31.9h4.18v-21.62Z"/>
          <path class="cls-2" d="M506.9,103.19c-.36,3.91-3.57,7.14-7.47,7.73-4.81.72-10.12-2.22-12.1-6.7-2.14-4.85-.68-10.78,3.47-13.95,2.14-1.63,4.54-2.39,7.28-2.43,4.02-.05,6.77,2.15,9.11,4.66,1.08-1.01,2.05-1.9,3.04-2.82-3.12-3.69-6.93-5.94-11.78-6.08-9.57-.29-16.94,7.49-16.4,17.22.46,8.19,8.13,14.96,16.39,14.47,8.3-.49,14.01-7.43,13.28-16.3h-12.07v4.2h7.25Z"/>
          <path class="cls-2" d="M450.1,82.78v31.9h4.13v-20.88c.17-.08.34-.16.51-.23,7.16,7.42,14.32,14.84,21.7,22.49v-31.87h-4.21v21.41c-7.62-7.85-14.77-15.22-22.13-22.8Z"/>
          <path class="cls-2" d="M345.25,95.67h-11.74v-7.36h12.11v-4.13h-16.39v30.47h16.43v-4.19h-12.15v-10.51h11.73v-4.28Z"/>
          <path class="cls-2" d="M311.72,114.68h13.07v-4.22h-8.97v-26.27h-4.11v30.5Z"/>
          <path class="cls-2" d="M438.41,84.14v30.54h3.88v-30.54h-3.88Z"/>
          <path class="cls-3" d="M408.88,93.04v21.62h-4.18v-31.9c7.4,7.62,14.57,15,22.2,22.85v-21.46h4.18v31.92c-7.39-7.67-14.55-15.09-22.2-23.03Z"/>
          <path class="cls-3" d="M506.9,103.19h-7.25v-4.2h12.07c.73,8.86-4.98,15.81-13.28,16.3-8.26.48-15.93-6.28-16.39-14.47-.55-9.73,6.83-17.51,16.4-17.22,4.85.15,8.66,2.4,11.78,6.08-.99.92-1.95,1.81-3.04,2.82-2.34-2.5-5.1-4.71-9.11-4.66-2.74.04-5.14.79-7.28,2.43-4.15,3.16-5.6,9.1-3.47,13.95,1.98,4.48,7.29,7.42,12.1,6.7,3.9-.59,7.11-3.82,7.47-7.73Z"/>
          <path class="cls-3" d="M450.1,82.78c7.36,7.58,14.51,14.96,22.13,22.8v-21.41h4.21v31.87c-7.38-7.64-14.54-15.06-21.7-22.49-.17.08-.34.16-.51.23v20.88h-4.13v-31.9Z"/>
          <path class="cls-3" d="M345.25,95.67v4.28h-11.73v10.51h12.15v4.19h-16.43v-30.47h16.39v4.13h-12.11v7.36h11.74Z"/>
          <path class="cls-3" d="M311.72,114.68v-30.5h4.11v26.27h8.97v4.22h-13.07Z"/>
          <path class="cls-3" d="M438.41,84.14h3.88v30.54h-3.88v-30.54Z"/>
        </g>
        <g>
          <path class="cls-3" d="M229.55,83.84c3.02.22,6.01.22,8.92.7,5.52.9,8.32,8.88,3.74,13.62.75.5,1.55.91,2.2,1.48,2.76,2.41,3.62,5.47,2.54,8.91-1.01,3.23-3.24,5.44-6.69,5.83-3.47.39-6.98.41-10.71.61v-31.16ZM233.66,110.74c2.42-.27,4.59-.26,6.61-.8,1.87-.5,2.86-2.13,2.78-4.13-.08-1.88-1.06-3.4-2.86-3.87-1.76-.46-3.66-.47-5.5-.53-.33,0-.98.7-.99,1.09-.09,2.58-.05,5.17-.05,8.23ZM233.77,97.36c2.51.26,4.99.46,5.95-1.91.62-1.52.59-3.78-.1-5.25-1.07-2.25-3.51-2.05-5.85-1.67v8.83Z"/>
          <path class="cls-2" d="M172.73,103.19c-.35,3.89-3.58,7.14-7.47,7.72-4.94.74-10.18-2.24-12.16-6.91-2.08-4.91-.53-10.72,3.71-13.86,2.24-1.66,4.75-2.35,7.55-2.28,3.81.09,6.45,2.24,8.49,4.48,1.14-.93,2.16-1.76,3.17-2.59-4.18-5-8.97-6.84-15.05-5.81-8.75,1.49-14.6,9.86-12.89,18.42,1.81,9.03,10.16,14.49,19.04,12.44,6.85-1.58,11.83-9.26,10.25-15.84h-11.89v4.22h7.25Z"/>
          <path class="cls-2" d="M280.76,84.13v30.53h13v-4.19h-8.97v-26.34h-4.03Z"/>
          <path class="cls-2" d="M181.93,84.1v30.58h12.97v-4.24h-8.96v-26.33h-4Z"/>
          <path class="cls-3" d="M172.73,103.19h-7.25v-4.22h11.89c1.58,6.58-3.41,14.26-10.25,15.84-8.87,2.04-17.23-3.42-19.04-12.44-1.71-8.57,4.14-16.94,12.89-18.42,6.07-1.03,10.87.81,15.05,5.81-1.01.83-2.04,1.66-3.17,2.59-2.05-2.24-4.68-4.39-8.49-4.48-2.8-.07-5.31.62-7.55,2.28-4.24,3.14-5.79,8.95-3.71,13.86,1.98,4.67,7.22,7.65,12.16,6.91,3.89-.58,7.13-3.83,7.47-7.72Z"/>
          <path class="cls-3" d="M247.49,114.72c4.99-10.75,9.88-21.27,14.96-32.2,4.91,10.95,9.65,21.51,14.41,32.11-.37.11-.51.18-.65.19-3.93.18-4.24.27-5.4-3.49-1.08-3.52-3.01-4.61-6.48-4.17-2.28.29-4.64.14-6.95.02-1.44-.07-2.23.44-2.66,1.77-.25.78-.66,1.5-.99,2.26q-1.68,3.8-6.24,3.52ZM267.1,102.77c-1.58-3.62-3.02-6.91-4.71-10.77-1.77,3.88-3.3,7.22-4.92,10.77h9.63Z"/>
          <path class="cls-3" d="M280.76,84.13h4.03v26.34h8.97v4.19h-13v-30.53Z"/>
          <path class="cls-3" d="M181.93,84.1h4v26.33h8.96v4.24h-12.97v-30.58Z"/>
          <path class="cls-2" d="M210.22,83.59c-8.84-.01-16.09,7.08-16.1,15.76-.02,8.86,7.04,15.94,15.87,15.94,8.89,0,15.94-7,15.95-15.84.01-8.7-7.08-15.85-15.72-15.86ZM209.87,110.97c-6.39-.03-11.4-5.16-11.38-11.65.03-6.55,5.1-11.48,11.78-11.44,6.53.03,11.3,4.95,11.28,11.64-.02,6.69-4.91,11.48-11.68,11.46Z"/>
        </g>
      </g>
    </g>
  </g>
</svg>