<?xml version="1.0" encoding="UTF-8"?>
<svg xmlns="http://www.w3.org/2000/svg" viewBox="0 0 124.13 124.13">
  <defs>
    <style>
      .cls-3 { fill: #26408d; fill-rule: evenodd; }
      .cls-4 { fill-rule: evenodd; fill: #fff; }
      .cls-5 { fill: #fff; }
    </style>
  </defs>
  <path class="cls-5" d="M0,62.04c-.13,34.22,27.93,62.35,62.56,62.08,33.48-.26,61.22-27.3,61.55-61.45C124.45,27.93,96.21-.52,61.05,0,27.09.52-.08,28.28,0,62.04Z"/>
  <path class="cls-3" d="M0,62.04C-.08,28.28,27.09.52,61.05,0c35.16-.53,63.4,27.92,63.06,62.67-.33,34.15-28.07,61.19-61.55,61.45C27.93,124.4-.13,96.26,0,62.04ZM81.53,56.41c1.02,1.39,2.02,2.73,3,4.09,5.93,8.21,11.6,16.59,16.54,25.44,2.79,4.99,5.34,10.1,7.11,15.56.03.09.09.17.17.31.48-.58.9-1.13,1.37-1.64.29-.32.31-.6.16-1-1.98-5.5-4.64-10.67-7.52-15.73-4.7-8.24-10-16.1-15.54-23.79-.61-.84-1.22-1.68-1.89-2.61,1.38.64,2.79.86,4.06.6.45-.09.71.01.99.36,3.73,4.64,7.54,9.22,11.19,13.92,4.5,5.8,8.68,11.84,12.33,18.22.46.8.9,1.6,1.4,2.5.6-1.13,1.14-2.17,1.71-3.19.19-.34.17-.61-.03-.93-1.1-1.79-2.14-3.62-3.27-5.39-4.91-7.7-10.45-14.95-16.23-22.02-1.31-1.6-2.63-3.18-3.96-4.79.64-.36,1.27-.7,1.86-1.07.47-.3.94-.37,1.48-.28,1.87.29,3.45,1.22,4.92,2.32,3.1,2.31,6.6,2.91,10.28,2.27,5.29-.92,8.61-4.13,10.05-9.28.07-.26.08-.57.02-.83-1.32-6.28-3.59-12.21-6.81-17.76-.17-.3-.47-.61-.79-.74-2.43-.96-4.88-1.86-7.31-2.82-1.17-.46-2.34-.95-3.43-1.56-.87-.48-.95-1.05-.54-1.95.17-.37.38-.73.62-1.06.78-1.08,1.57-2.16,2.38-3.22.23-.3.21-.48-.06-.76-5.81-5.95-12.55-10.55-20.22-13.78-1.34-.57-1.36-.58-2.41.44-1,.96-1.95,1.98-2.96,2.93-.79.74-1.31.64-1.78-.32-.77-1.57-2.01-2.59-3.63-3.2-2.36-.88-4.83-1-7.3-1.16-1.62-.1-3.24-.19-4.84-.41-2.83-.39-5.54-1.27-8.24-2.15-.4-.13-.84-.25-1.24-.19-1.3.19-2.59.43-3.88.7-7.49,1.57-14.41,4.51-20.81,8.69-.33.22-.51.47-.55.85-.04.37-.07.74-.13,1.11-.21,1.37-.35,2.76-.66,4.1-.33,1.44-1.27,2.41-2.7,2.92-3.87,1.38-7.53,3.21-10.95,5.49-.36.24-.72.54-.97.89C6.5,34.82,2.86,44.11,1.51,54.31c-.06.47-.21,1-.06,1.42.73,2.09,1.9,3.87,3.9,4.97,1.86,1.02,3.83,1.14,5.85.64.41-.1.66-.02.96.28,1.05,1.04,2.11,2.07,3.23,3.04.94.81,1.97,1.52,2.97,2.28-.91,1.19-1.83,2.39-2.74,3.6-3.45,4.57-6.74,9.24-9.77,14.1-.22.35-.29.63-.1,1.02.46.94.87,1.91,1.3,2.87.06.13.15.25.26.43,4.28-7.23,9.17-13.93,14.23-20.42,1.54.63,3.02,1.24,4.51,1.86-.15.23-.31.47-.46.71-3.35,5.11-6.6,10.28-9.43,15.7-1.54,2.96-2.91,6.02-4.35,9.04-.09.19-.19.5-.11.64.45.72.96,1.4,1.5,2.15.12-.27.19-.43.26-.59,1.01-2.26,1.94-4.55,3.03-6.77,3.44-7,7.56-13.59,11.85-20.09.2-.3.41-.38.75-.34,3.05.29,5.78-.51,8.15-2.47.3-.25.58-.51.87-.76-.43.78-.9,1.52-1.37,2.25-4.83,7.61-9.46,15.34-13.28,23.52-1.67,3.58-3.16,7.24-4.08,11.1-.24,1.02-.08,1.4.76,1.83.48-1.7.89-3.43,1.45-5.11,1.52-4.57,3.61-8.9,5.85-13.15,4.28-8.12,9.15-15.89,14.21-23.55.33-.49.71-.86,1.24-1.12.54-.27,1.05-.6,1.55-.95,1.57-1.1,2.9-2.42,3.65-4.23.16-.39.28-.79.43-1.2.67.5.68.5.34,1.2-.69,1.42-1.4,2.84-2.09,4.27-3.43,7.14-6.72,14.34-9.7,21.67-2.72,6.69-5.27,13.44-6.96,20.48-.65,2.7-1.15,5.43-1.13,8.23,0,.48.2.71.71.83,0-.98-.07-1.93.01-2.86.28-3.15,1-6.21,1.87-9.24,1.92-6.75,4.38-13.32,7.18-19.74,3.02-6.93,6.23-13.78,9.37-20.66.49-1.08,1.05-2.13,1.55-3.14.91.4,1.76.78,2.66,1.18.02.41.08.89.08,1.37-.01,3.76.05,7.52-.07,11.28-.11,3.63-.36,7.26-.64,10.88-.35,4.51-1.04,8.98-2.05,13.39-1,4.38-2.33,8.66-4.52,12.61-1.53,2.76-3.4,5.24-6.1,6.97-.93.59-1.95,1.04-2.93,1.55.04.02.13.07.23.12,3.19,1.51,6.5,2.7,9.91,3.62,4.26,1.15,8.6,1.78,13,2.03.68.04,1.29-.06,1.87-.45.8-.54,1.62-1.03,2.44-1.54,1.9-1.18,3.64-2.63,5.76-3.45.06-.02.15-.06.16-.11.08-.41.43-.36.68-.34,1.52.16,3.07.23,4.55.57,2.32.52,4.6,1.25,6.9,1.86.29.08.65.07.92-.03,1.56-.59,3.11-1.23,4.66-1.85.14-.05.26-.15.43-.25-.16-.1-.24-.16-.33-.21-2.98-1.72-5.42-4.04-7.47-6.78-3.14-4.2-5.2-8.94-6.75-13.91-2.39-7.67-3.54-15.57-4.06-23.56-.26-4-.25-8.01-.38-12.02-.02-.7.08-1.26.67-1.77.48-.41.75-1.07,1.09-1.63.12-.19.2-.41.33-.69.75,1.52,1.46,2.97,2.16,4.42,4.42,9.13,8.64,18.35,12.27,27.83,2.4,6.26,4.64,12.58,5.78,19.22.34,1.97.54,3.95.28,5.95-.06.48-.15.96-.24,1.47.5-.15.73-.41.82-.91.26-1.53.22-3.06.05-4.58-.31-2.89-.96-5.71-1.75-8.51-2.26-8.03-5.36-15.75-8.65-23.4-3.2-7.44-6.66-14.76-10.27-22.01-.09-.18-.17-.41-.14-.6.09-.55.23-1.09.35-1.64.04.02.06.02.07.03.08.13.17.27.25.41.83,1.4,1.79,2.66,3.38,3.29.16.06.3.24.41.39,6.07,8.33,11.84,16.85,16.9,25.83,2.63,4.67,5.06,9.45,6.86,14.51,1,2.82,1.84,5.69,1.9,8.72.01.49,0,.97,0,1.47.09,0,.13,0,.15-.01.23-.19.45-.4.7-.58.3-.21.36-.45.35-.82-.05-2.77-.73-5.42-1.59-8.03-1.73-5.26-4.2-10.19-6.87-15.03-4.52-8.16-9.68-15.91-15.08-23.51-.63-.88-1.26-1.76-1.94-2.71,1.74-.13,3.2-.8,4.66-1.68Z"/>
  <path class="cls-4" d="M81.53,56.41c-1.46.87-2.93,1.54-4.66,1.68.68.95,1.31,1.83,1.94,2.71,5.4,7.6,10.56,15.35,15.08,23.51,2.68,4.83,5.14,9.76,6.87,15.03.86,2.61,1.54,5.26,1.59,8.03,0,.36-.06.61-.35.82-.25.17-.47.39-.7.58-.02.02-.07,0-.15.01,0-.49,0-.98,0-1.47-.07-3.03-.9-5.89-1.9-8.72-1.79-5.07-4.23-9.84-6.86-14.51-5.06-8.99-10.84-17.51-16.9-25.83-.11-.15-.25-.33-.41-.39-1.59-.63-2.55-1.89-3.38-3.29-.08-.14-.16-.27-.25-.41,0-.01-.03-.01-.07-.03-.12.55-.27,1.09-.35,1.64-.03.19.05.42.14.6,3.6,7.25,7.07,14.57,10.27,22.01,3.29,7.65,6.39,15.37,8.65,23.4.78,2.79,1.43,5.62,1.75,8.51.17,1.52.21,3.05-.05,4.58-.08.49-.32.76-.82.91.08-.51.17-.99.24-1.47.26-2,.06-3.98-.28-5.95-1.14-6.64-3.39-12.96-5.78-19.22-3.63-9.48-7.84-18.7-12.27-27.83-.7-1.45-1.42-2.9-2.16-4.42-.13.28-.21.5-.33.69-.35.56-.62,1.21-1.09,1.63-.59.52-.69,1.07-.67,1.77.13,4.01.11,8.02.38,12.02.52,7.99,1.67,15.89,4.06,23.56,1.55,4.97,3.61,9.71,6.75,13.91,2.05,2.74,4.48,5.07,7.47,6.78.09.05.18.11.33.21-.18.1-.3.19-.43.25-1.55.63-3.1,1.26-4.66,1.85-.27.1-.63.11-.92.03-2.3-.61-4.58-1.34-6.9-1.86-1.48-.34-3.03-.4-4.55-.57-.26-.03-.6-.07-.68.34,0,.05-.1.09-.16.11-2.12.82-3.86,2.27-5.76,3.45-.82.51-1.64,1-2.44,1.54-.58.39-1.18.49-1.87.45-4.4-.25-8.74-.88-13-2.03-3.41-.92-6.72-2.11-9.91-3.62-.09-.04-.18-.1-.23-.12.97-.51,2-.95,2.93-1.55,2.7-1.73,4.57-4.21,6.1-6.97,2.19-3.96,3.52-8.23,4.52-12.61,1.01-4.41,1.7-8.88,2.05-13.39.28-3.62.53-7.25.64-10.88.12-3.76.06-7.52.07-11.28,0-.48-.05-.96-.08-1.37-.9-.4-1.75-.78-2.66-1.18-.5,1.01-1.05,2.06-1.55,3.14-3.14,6.88-6.34,13.73-9.37,20.66-2.8,6.42-5.26,12.99-7.18,19.74-.86,3.03-1.58,6.1-1.87,9.24-.08.93-.01,1.88-.01,2.86-.5-.11-.7-.34-.71-.83-.01-2.8.48-5.53,1.13-8.23,1.69-7.04,4.24-13.79,6.96-20.48,2.98-7.34,6.27-14.54,9.7-21.67.69-1.43,1.39-2.84,2.09-4.27.34-.69.33-.7-.34-1.2-.14.4-.27.81-.43,1.2-.75,1.81-2.08,3.13-3.65,4.23-.49.35-1.01.68-1.55.95-.53.26-.91.63-1.24,1.12-5.05,7.66-9.92,15.43-14.21,23.55-2.24,4.25-4.34,8.58-5.85,13.15-.56,1.68-.97,3.41-1.45,5.11-.83-.43-1-.81-.76-1.83.92-3.86,2.41-7.51,4.08-11.1,3.82-8.18,8.45-15.91,13.28-23.52.47-.74.94-1.47,1.37-2.25-.29.25-.57.52-.87.76-2.37,1.96-5.1,2.76-8.15,2.47-.34-.03-.55.04-.75.34-4.29,6.5-8.41,13.1-11.85,20.09-1.09,2.22-2.03,4.51-3.03,6.77-.07.16-.14.32-.26.59-.54-.76-1.05-1.44-1.5-2.15-.09-.14.01-.45.11-.64,1.44-3.02,2.8-6.08,4.35-9.04,2.83-5.42,6.07-10.6,9.43-15.7.16-.24.31-.48.46-.71-1.49-.61-2.97-1.22-4.51-1.86-5.06,6.49-9.95,13.18-14.23,20.42-.11-.18-.2-.3-.26-.43-.43-.96-.84-1.92-1.3-2.87-.19-.39-.12-.67.1-1.02,3.03-4.86,6.32-9.53,9.77-14.1.91-1.21,1.84-2.41,2.74-3.6-1-.76-2.03-1.47-2.97-2.28-1.12-.96-2.18-2-3.23-3.04-.3-.29-.55-.38-.96-.28-2.02.5-3.99.38-5.85-.64-2-1.1-3.17-2.88-3.9-4.97-.15-.42,0-.95.06-1.42,1.35-10.2,4.99-19.5,11-27.85.25-.35.61-.65.97-.89,3.42-2.28,7.08-4.11,10.95-5.49,1.43-.51,2.37-1.48,2.7-2.92.31-1.35.45-2.73.66-4.1.06-.37.09-.74.13-1.11.04-.38.22-.63.55-.85,6.4-4.19,13.32-7.13,20.81-8.69,1.29-.27,2.58-.52,3.88-.7.4-.06.85.07,1.24.19,2.7.89,5.42,1.76,8.24,2.15,1.6.22,3.22.31,4.84.41,2.47.16,4.94.28,7.3,1.16,1.62.6,2.86,1.62,3.63,3.2.47.96.99,1.06,1.78.32,1.01-.95,1.96-1.97,2.96-2.93,1.06-1.01,1.07-1,2.41-.44,7.67,3.23,14.4,7.83,20.22,13.78.27.28.29.45.06.76-.81,1.06-1.6,2.14-2.38,3.22-.24.33-.44.69-.62,1.06-.42.9-.33,1.47.54,1.95,1.09.61,2.26,1.1,3.43,1.56,2.43.96,4.88,1.86,7.31,2.82.31.12.61.43.79.74,3.22,5.55,5.49,11.48,6.81,17.76.06.27.05.57-.02.83-1.45,5.15-4.76,8.36-10.05,9.28-3.69.64-7.19.04-10.28-2.27-1.48-1.1-3.05-2.03-4.92-2.32-.53-.08-1.01-.01-1.48.28-.6.38-1.23.71-1.86,1.07,1.33,1.61,2.66,3.19,3.96,4.79,5.77,7.07,11.31,14.32,16.23,22.02,1.13,1.77,2.17,3.6,3.27,5.39.2.32.22.59.03.93-.57,1.02-1.11,2.06-1.71,3.19-.5-.9-.94-1.7-1.4-2.5-3.65-6.39-7.83-12.42-12.33-18.22-3.65-4.7-7.46-9.28-11.19-13.92-.28-.35-.54-.46-.99-.36-1.27.26-2.68.04-4.06-.6.67.93,1.28,1.77,1.89,2.61,5.55,7.69,10.84,15.55,15.54,23.79,2.89,5.06,5.54,10.24,7.52,15.73.14.4.12.68-.16,1-.46.51-.89,1.06-1.37,1.64-.08-.14-.14-.22-.17-.31-1.77-5.46-4.32-10.56-7.11-15.56-4.94-8.85-10.61-17.23-16.54-25.44-.98-1.35-1.98-2.7-3-4.09Z"/>
</svg>
